# xmcd CD database file
#
# Track frame offsets:
#	150
#	12012
#	19963
#	31868
#	41821
#	54119
#	65665
#	76915
#	88888
#	102442
#	115600
#	128102
#	139491
#	151137
#	163600
#	176939
#	187527
#	197096
#	212323
#	226377
#	238074
#
# Disc length: 3313 seconds
#
# Revision: 1
# Processed by: cddbd v1.5.1PL2 Copyright (c) Steve Scherf et al.
# Submitted via: CDex 1.51
#
DISCID=100cef15
DTITLE=Glen Campbell - Legacy 1961-2002 [CD1]
DYEAR=2003
DGENRE=Country
TTITLE0=Turn Around, Look At Me
TTITLE1=Kentucky Means Paradise (The Green River Boys Featuring Glen Campbell)
TTITLE2=Too Late To Worry, Too Blue To Cry
TTITLE3=Universal Soldier
TTITLE4=Guess I'm Dumb
TTITLE5=Burning Bridges
TTITLE6=Just To Satisfy You
TTITLE7=Less Of Me
TTITLE8=Gentle On My Mind
TTITLE9=Crying
TTITLE10=By The Time I Get To Phoenix
TTITLE11=Tomorrow Never Comes
TTITLE12=Hey Little One
TTITLE13=I Wanna Live
TTITLE14=Turn Around, Look At Me (New Version)
TTITLE15=Legend Of Bonnie and Clyde
TTITLE16=Let It Be Me (With Bobbie Gentry)
TTITLE17=Scarborough Fair and Canticle (With Bobbie Gentry)
TTITLE18=Wichita Lineman
TTITLE19=Dreams Of The Everyday Housewife
TTITLE20=Reason To Believe
EXTD=2003 Capitol Nashville YEAR: 2003
EXTT0=
EXTT1=
EXTT2=
EXTT3=
EXTT4=
EXTT5=
EXTT6=
EXTT7=
EXTT8=
EXTT9=
EXTT10=
EXTT11=
EXTT12=
EXTT13=
EXTT14=
EXTT15=
EXTT16=
EXTT17=
EXTT18=
EXTT19=
EXTT20=
PLAYORDER=
